# xmcd
#
# Track frame offsets:
#	150
#	10262
#	20024
#	29551
#	38038
#	48470
#	59497
#	69629
#	80591
#	92433
#	103545
#	113762
#	123874
#	133621
#	142043
#	153500
#	163022
#	173994
#	184946
#	194033
#	204375
#	213387
#	224999
#	235731
#	244308
#	254810
#	264577
#	273899
#	282946
#	295333
#
# Disc length: 4073
#
# Revision: 1
# Processed by: cddbd v1.5.1PL0 Copyright (c) Steve Scherf et al.
# Submitted via: EasyCDDAExtractor 4.6.0.1
# Normalized: r0:DSETVAR1,TDELIM( - )
#
DISCID=d70fe71e
DTITLE=Various Artist - Rockabilly Gold Volume 14
DYEAR=1900
DGENRE=
TTITLE0=The Lonesome Drifter - Eager Boy
TTITLE1=Teen Kings - Domino
TTITLE2=Patt Cupp and His Flying Saucers - That Girl Of Mine
TTITLE3=Vern Pullins - Mama Don't Allow No Boppin'
TTITLE4=Al Ferrier and His Boppin Billies - No No Baby
TTITLE5=Glen Johnson - Little Heart Attacks
TTITLE6=Ray Campi - Play It Cool
TTITLE7=Skeets McDonald - Heartbreakin' Mama
TTITLE8=Charles Dean - Parking In The Dark
TTITLE9=Sonny Burgess - We Wanna Boogie
TTITLE10=Joe Lewis - All Night Long
TTITLE11=Wanda Jackson - Fujiyama Mama
TTITLE12=Maynhard Horlick - Do The Bop Bop
TTITLE13=Johnny Tate - Bop With Me Baby
TTITLE14=Rhythm Rockers - My Shadow
TTITLE15=Junior Thomson - Who's Knockin'
TTITLE16=Pat Cupp and His Flying Saucers - I Guess It's Meant That Way
TTITLE17=Leroy Dogson - I Wanna Make Love
TTITLE18=Ray Vict and His Bop Rocks - Bop Stop Rock
TTITLE19=Dean Beard - Party Party
TTITLE20=Joe Clay - Sixteen Chicks
TTITLE21=Jimmie Swan - Honky Tonkin'
TTITLE22=Sanford Clark - Nine Pound Hammer
TTITLE23=Billy Wayne and The Jackson Boys - I Love My Baby
TTITLE24=N. A. Stephenson - Boogie Woogie Country Girl
TTITLE25=Phil Gray and His Go Boys - Pepper Hot Baby
TTITLE26=Johnny Powers and His Rockets - Rock Rock
TTITLE27=Dwight Pullen - Teenage Bug
TTITLE28=Billy Briggs - Chew Tobacco Rag
TTITLE29=Walter Dixon - Goodbye She's Gone
EXTD=
EXTT0=
EXTT1=
EXTT2=
EXTT3=
EXTT4=
EXTT5=
EXTT6=
EXTT7=
EXTT8=
EXTT9=
EXTT10=
EXTT11=
EXTT12=
EXTT13=
EXTT14=
EXTT15=
EXTT16=
EXTT17=
EXTT18=
EXTT19=
EXTT20=
EXTT21=
EXTT22=
EXTT23=
EXTT24=
EXTT25=
EXTT26=
EXTT27=
EXTT28=
EXTT29=
PLAYORDER=
